<?xml version="1.0" standalone="no"?>
<!DOCTYPE svg PUBLIC "-//W3C//DTD SVG 20010904//EN"
 "http://www.w3.org/TR/2001/REC-SVG-20010904/DTD/svg10.dtd">
<svg version="1.0" xmlns="http://www.w3.org/2000/svg"
 width="100.000000pt" height="100.000000pt" viewBox="0 0 100.000000 100.000000"
 preserveAspectRatio="xMidYMid meet">
<metadata>
Created by potrace 1.14, written by Peter Selinger 2001-2017
</metadata>
<g transform="translate(0.000000,100.000000) scale(0.100000,-0.100000)"
fill="#000000" stroke="none">
<path d="M338 794 c-59 -52 -110 -105 -113 -117 -3 -12 -4 -92 -3 -177 l3
-155 35 -3 c19 -1 40 1 46 5 7 5 15 42 19 83 4 41 12 84 19 95 13 21 29 62 52
132 11 37 11 45 -2 58 -14 13 -12 18 15 47 51 54 77 129 44 128 -4 -1 -56 -44
-115 -96z m-5 -125 c-13 -22 -19 -26 -21 -14 -2 9 5 23 15 30 26 20 26 19 6
-16z"/>
<path d="M530 875 c0 -25 29 -77 62 -112 28 -29 29 -33 15 -47 -16 -17 -15
-27 16 -112 9 -23 22 -55 30 -70 8 -16 17 -59 21 -96 9 -96 11 -100 60 -96
l41 3 3 163 c1 101 -2 170 -8 182 -13 23 -216 200 -230 200 -6 0 -10 -7 -10
-15z m160 -217 c0 -12 -1 -19 -3 -17 -2 2 -11 17 -21 32 -17 28 -17 28 3 17
12 -6 21 -20 21 -32z"/>
<path d="M163 805 c-43 -46 -42 -63 2 -29 19 14 35 28 35 29 0 2 3 10 6 19 10
26 -9 18 -43 -19z"/>
<path d="M790 830 c0 -13 60 -70 73 -70 17 0 -26 56 -55 71 -12 7 -18 6 -18
-1z"/>
<path d="M100 788 c-22 -35 -25 -117 -6 -130 5 -4 2 -13 -7 -23 -16 -15 -17
-13 -19 32 0 26 -1 54 -1 62 2 26 -19 -6 -27 -45 -9 -38 5 -134 18 -134 12 1
100 140 88 140 -2 0 -12 -7 -21 -16 -9 -9 -19 -13 -23 -9 -4 4 10 20 31 37 39
32 65 68 48 68 -5 0 -24 -12 -41 -27 l-32 -27 7 35 c3 19 9 42 11 52 8 27 -4
20 -26 -15z"/>
<path d="M877 783 c3 -21 10 -47 16 -58 8 -16 4 -15 -19 6 -16 15 -40 32 -53
39 l-24 12 22 -31 c22 -31 81 -81 95 -81 12 0 4 82 -11 112 -21 42 -32 43 -26
1z"/>
<path d="M472 768 c-15 -15 -15 -53 -1 -80 9 -17 8 -23 -4 -30 -42 -23 -47
-37 -47 -138 0 -89 2 -100 20 -110 15 -8 20 -21 20 -50 0 -40 0 -40 40 -40
l40 0 0 41 c0 32 4 42 20 46 18 5 20 14 20 109 0 88 -3 107 -19 123 -10 10
-24 20 -31 23 -10 3 -10 9 -1 25 23 44 8 93 -29 93 -9 0 -21 -5 -28 -12z"/>
<path d="M933 671 l2 -59 -36 39 c-20 21 -39 39 -43 39 -9 0 27 -67 57 -108
19 -25 27 -30 35 -19 24 28 18 167 -7 167 -5 0 -8 -27 -8 -59z"/>
<path d="M0 597 c0 -36 25 -96 52 -124 l21 -22 24 51 c14 31 21 59 17 71 -6
19 -8 17 -25 -14 -10 -19 -19 -45 -19 -59 -1 -22 -3 -21 -15 10 -7 19 -23 53
-34 75 -20 37 -21 38 -21 12z"/>
<path d="M980 588 c-8 -13 -23 -43 -32 -68 -13 -35 -17 -40 -17 -20 -1 24 -35
90 -46 90 -10 0 2 -53 23 -98 l19 -43 26 31 c25 29 52 101 45 121 -2 5 -10 -1
-18 -13z"/>
<path d="M872 483 c-7 -20 -6 -142 2 -150 9 -9 64 36 85 71 35 56 23 64 -22
15 l-43 -47 -1 42 c-1 47 -6 86 -10 86 -2 0 -7 -8 -11 -17z"/>
<path d="M108 463 c0 -16 -1 -42 -1 -60 l0 -31 -48 51 c-48 51 -49 52 -37 18
11 -34 79 -111 98 -111 9 0 13 18 13 75 0 63 -4 85 -13 85 -5 0 -11 -12 -12
-27z"/>
<path d="M154 344 c4 -21 13 -51 20 -66 21 -42 2 -35 -64 22 -32 28 -61 50
-64 50 -4 0 2 -17 13 -38 19 -38 71 -73 125 -86 l28 -7 -7 48 c-7 50 -27 97
-46 108 -7 5 -9 -5 -5 -31z"/>
<path d="M825 357 c-11 -17 -35 -107 -35 -132 0 -7 68 14 97 29 28 14 85 96
67 96 -3 0 -33 -23 -66 -51 -32 -29 -61 -49 -64 -47 -2 3 0 18 6 33 13 34 23
95 16 95 -3 0 -12 -10 -21 -23z"/>
<path d="M226 263 c9 -21 28 -51 42 -66 l27 -28 -29 11 c-16 6 -45 13 -64 16
-19 3 -47 10 -61 16 l-26 9 23 -24 c12 -13 41 -29 62 -36 38 -11 105 -7 115 8
8 14 -80 131 -99 131 -3 0 2 -17 10 -37z"/>
<path d="M753 278 c-38 -42 -73 -102 -65 -110 5 -5 29 -10 54 -12 48 -4 95 13
123 44 14 16 8 16 -70 -5 l-86 -22 30 31 c17 18 31 39 31 48 0 9 5 20 10 23
12 7 13 25 2 25 -5 0 -18 -10 -29 -22z"/>
<path d="M350 149 c-25 -4 -57 -12 -71 -17 -15 -6 -29 -8 -32 -5 -3 2 -14 0
-23 -5 -16 -9 -13 -11 18 -17 42 -8 103 -1 171 20 56 17 60 9 12 -23 -19 -12
-35 -27 -35 -33 0 -6 19 6 42 25 23 20 52 36 66 36 24 0 81 -34 95 -57 4 -7
13 -13 19 -13 16 0 -22 40 -55 57 -46 23 -26 24 54 3 81 -21 145 -25 169 -10
10 7 11 10 3 11 -16 2 -15 2 -83 18 -46 12 -115 15 -195 10 -11 -1 -40 1 -65
3 -25 3 -65 2 -90 -3z"/>
</g>
</svg>
